<?xml version="1.0" standalone="no"?>
<!DOCTYPE svg PUBLIC "-//W3C//DTD SVG 20010904//EN"
 "http://www.w3.org/TR/2001/REC-SVG-20010904/DTD/svg10.dtd">
<svg version="1.0" xmlns="http://www.w3.org/2000/svg"
 width="700.000000pt" height="700.000000pt" viewBox="0 0 700.000000 700.000000"
 preserveAspectRatio="xMidYMid meet">
<metadata>
Created by potrace 1.14, written by Peter Selinger 2001-2017
</metadata>
<g transform="translate(0.000000,700.000000) scale(0.100000,-0.100000)"
fill="#000000" stroke="none">
<path d="M6088 6415 c-2 -2 -16 -5 -33 -8 -33 -6 -877 -216 -995 -248 -66 -17
-2429 -608 -2455 -613 -116 -23 -205 -88 -246 -178 l-24 -53 -2 -1545 c-1
-850 -2 -1546 -2 -1547 -1 -2 -24 6 -53 18 -64 25 -226 66 -293 74 -27 3 -66
8 -85 11 -46 7 -280 7 -311 0 -13 -3 -46 -8 -74 -11 -83 -10 -209 -43 -305
-80 -253 -97 -448 -259 -543 -451 -63 -127 -86 -228 -81 -358 18 -425 427
-768 994 -833 176 -20 437 1 590 47 19 6 42 13 50 15 8 2 54 19 101 38 234 96
425 261 518 450 80 164 75 60 76 1459 1 686 3 1250 6 1252 2 2 549 139 1214
305 666 166 1224 305 1240 310 81 25 448 111 453 106 7 -7 9 -1475 1 -1475 -3
0 -32 9 -65 20 -177 62 -316 85 -509 85 -245 0 -436 -40 -640 -135 -279 -130
-483 -375 -522 -623 -12 -73 -6 -210 11 -277 32 -128 116 -271 215 -371 35
-34 147 -120 196 -150 137 -82 331 -148 525 -177 90 -14 391 -7 490 12 300 54
562 198 722 396 72 90 139 235 155 339 4 25 7 930 8 2011 l0 1965 -28 55 c-50
97 -140 158 -242 165 -30 1 -55 2 -57 0z m-256 -677 c5 -17 2 -547 -3 -552 -3
-2 -465 -119 -519 -131 -8 -2 -125 -31 -260 -65 -135 -34 -252 -63 -260 -65
-8 -2 -430 -107 -938 -234 -508 -127 -926 -229 -930 -227 -11 6 -7 545 4 555
7 7 120 38 204 56 13 3 1654 412 1730 432 241 61 957 241 961 242 4 1 9 -5 11
-11z m-411 -3128 c146 -27 274 -86 351 -163 82 -82 80 -145 -7 -232 -111 -112
-296 -171 -530 -169 -236 2 -446 83 -535 206 -50 69 -39 134 37 205 48 46 176
113 253 133 137 36 300 44 431 20z m-3501 -875 c14 -3 36 -7 48 -10 100 -18
223 -79 291 -142 62 -57 84 -108 68 -159 -13 -44 -83 -115 -151 -154 -52 -29
-196 -84 -196 -74 0 3 -8 0 -18 -5 -24 -13 -125 -23 -221 -23 -340 2 -640 190
-557 351 50 96 232 191 421 221 60 9 267 6 315 -5z"/>
</g>
</svg>
